<?xml version="1.0" standalone="no"?>
<!DOCTYPE svg PUBLIC "-//W3C//DTD SVG 20010904//EN"
 "http://www.w3.org/TR/2001/REC-SVG-20010904/DTD/svg10.dtd">
<svg version="1.0" xmlns="http://www.w3.org/2000/svg"
 width="1024.000000pt" height="1024.000000pt" viewBox="0 0 1024.000000 1024.000000"
 preserveAspectRatio="xMidYMid meet">

<g transform="translate(0.000000,1024.000000) scale(0.100000,-0.100000)"
fill="#000000" stroke="none">
<path d="M4835 8353 c-819 -24 -1622 -293 -2285 -767 -120 -86 -305 -231 -343
-269 -17 -17 -18 -58 -13 -905 3 -488 6 -918 6 -956 l0 -69 113 110 c126 124
171 164 272 244 120 95 147 114 255 186 653 433 1379 645 2215 646 386 1 750
-53 1144 -169 618 -182 1196 -532 1654 -1001 l97 -100 0 943 0 942 -52 50
c-192 179 -479 394 -728 542 -146 88 -427 225 -600 293 -518 204 -1099 298
-1735 280z m370 -195 c3 -13 5 -70 3 -128 l-3 -105 -112 -3 -113 -3 0 124 c0
68 3 127 7 130 3 4 53 7 109 7 99 0 104 -1 109 -22z m-457 -112 c1 -66 -1
-123 -5 -126 -4 -4 -56 -11 -115 -14 l-108 -7 0 125 0 125 43 5 c57 8 127 13
157 12 l25 -1 3 -119z m792 104 c131 -16 120 -3 120 -146 l0 -125 -80 7 c-44
3 -95 10 -113 13 l-32 7 -3 114 c-3 114 0 140 15 140 5 0 47 -5 93 -10z
m-1252 -162 l-3 -132 -109 -19 c-90 -16 -110 -17 -117 -5 -14 22 -11 234 4
246 14 12 145 40 195 41 l33 1 -3 -132z m1754 72 l67 -20 3 -98 c4 -127 1
-152 -20 -152 -9 0 -59 9 -109 21 l-93 21 0 131 0 130 43 -6 c23 -3 72 -15
109 -27z m-2204 -172 l3 -127 -111 -35 c-60 -20 -112 -36 -115 -36 -3 0 -5 60
-5 134 l0 133 93 31 c138 46 131 51 135 -100z m2604 51 c135 -49 128 -40 128
-179 0 -66 -4 -120 -9 -120 -4 0 -55 18 -112 39 l-104 39 -1 89 c-1 83 5 163
12 163 1 0 40 -14 86 -31z m-3052 -204 c0 -125 0 -126 -25 -135 -14 -5 -61
-27 -104 -49 -44 -22 -82 -37 -85 -34 -3 4 -6 61 -6 128 l0 122 98 46 c53 26
103 47 110 47 9 0 12 -32 12 -125z m3494 16 c45 -22 93 -49 109 -61 27 -21 27
-23 27 -136 0 -63 -4 -114 -8 -114 -5 0 -57 25 -115 56 l-107 55 0 120 c0 65
3 119 7 119 3 0 43 -18 87 -39z m-3924 -208 c0 -65 -4 -123 -8 -129 -9 -13
-105 -75 -161 -104 l-41 -20 0 127 0 128 98 57 c53 31 100 57 105 57 4 1 7
-52 7 -116z m4375 -56 c110 -73 105 -64 105 -199 0 -65 -2 -118 -5 -118 -2 0
-49 30 -105 66 l-100 65 0 125 0 125 23 -12 c12 -7 49 -30 82 -52z m-4805
-232 l0 -124 -92 -66 c-50 -36 -95 -65 -100 -65 -4 0 -8 52 -8 115 l0 114 72
58 c40 32 82 66 92 76 11 9 23 17 28 17 4 0 8 -56 8 -125z m5200 -74 c36 -30
71 -61 78 -70 8 -10 12 -55 12 -140 l0 -125 -37 35 c-21 19 -60 53 -88 74 -27
22 -53 44 -57 50 -4 5 -8 66 -8 134 0 141 -12 136 100 42z m-2532 -196 c14 -5
18 -240 3 -249 -5 -3 -57 -3 -115 1 l-106 6 0 122 c0 67 3 125 7 128 6 7 187
0 211 -8z m-448 -125 l0 -119 -57 -7 c-32 -4 -83 -7 -113 -8 l-55 -1 -3 118
c-2 88 1 119 10 122 21 7 192 21 206 17 9 -3 12 -37 12 -122z m828 98 l82 -11
0 -124 0 -123 -27 0 c-16 1 -66 6 -113 13 l-85 13 -3 109 c-1 60 0 115 2 122
7 16 37 16 144 1z m-1288 -153 c0 -69 -2 -125 -4 -125 -3 0 -53 -9 -111 -20
-58 -12 -110 -18 -115 -15 -15 9 -13 232 3 242 14 8 170 41 205 42 22 1 22 -1
22 -124z m1680 79 c36 -8 82 -19 103 -25 l37 -10 0 -125 c0 -97 -3 -125 -12
-121 -7 2 -57 15 -110 28 l-98 24 0 123 c0 67 3 122 8 122 4 0 36 -7 72 -16z
m-2132 -283 c-3 -21 -16 -28 -98 -56 -52 -18 -103 -36 -113 -40 -16 -7 -17 1
-15 121 l3 129 105 36 105 36 8 -101 c4 -55 6 -112 5 -125z m2617 148 c47 -17
92 -38 100 -46 20 -19 22 -243 3 -243 -7 1 -58 18 -113 39 l-100 39 -2 121
c-1 97 1 121 12 121 8 0 53 -14 100 -31z m-3065 -211 l0 -123 -103 -48 c-56
-26 -106 -47 -110 -47 -4 0 -6 55 -5 123 l3 122 94 48 c51 26 99 47 107 47 11
0 14 -25 14 -122z m3503 6 c133 -67 127 -58 127 -189 0 -104 -8 -142 -25 -115
-4 6 -48 31 -98 57 -51 25 -95 51 -99 57 -4 6 -8 59 -8 119 0 89 3 107 15 107
9 0 48 -16 88 -36z m-3936 -241 l-2 -117 -100 -64 -100 -63 -3 117 c-2 94 0
121 12 132 23 24 180 120 188 116 3 -2 6 -57 5 -121z m4363 -9 c125 -77 120
-69 120 -207 l0 -119 -22 16 c-13 8 -60 39 -105 67 -65 40 -82 56 -85 78 -5
45 3 211 10 211 4 0 41 -21 82 -46z m-4790 -288 c0 -119 -1 -124 -24 -139 -13
-9 -55 -43 -94 -76 -38 -34 -73 -61 -76 -61 -4 0 -5 57 -4 127 l3 127 90 73
c50 40 93 73 98 73 4 0 7 -56 7 -124z m5157 -8 c21 -17 59 -52 86 -77 l47 -45
0 -119 0 -119 -95 87 -95 87 0 109 c0 63 4 109 10 109 5 0 26 -14 47 -32z"/>
<path d="M3720 5945 l0 -135 56 0 c50 0 55 -2 49 -17 -4 -10 -43 -133 -87
-273 -77 -247 -164 -523 -215 -683 -13 -42 -53 -170 -87 -285 l-62 -207 -79
-5 -80 -5 0 -132 0 -133 338 0 337 0 0 138 0 137 -76 -3 c-70 -3 -75 -2 -71
15 3 10 19 63 36 118 16 55 33 112 37 128 l6 27 285 -2 285 -3 38 -135 c21
-74 36 -138 34 -142 -3 -5 -36 -8 -75 -8 l-69 0 0 -135 0 -135 400 0 400 0 0
135 0 134 -67 3 -68 3 -88 295 c-48 162 -151 509 -228 770 -77 261 -154 519
-170 573 l-31 97 -374 0 -374 0 0 -135z m449 -577 c29 -101 70 -241 92 -313
21 -71 39 -131 39 -132 0 -2 -85 -3 -190 -3 -104 0 -190 3 -190 8 0 4 18 66
39 137 98 336 145 485 151 485 3 0 30 -82 59 -182z"/>
<path d="M5250 5950 l0 -130 69 0 c39 0 72 -4 75 -9 3 -5 6 -337 6 -737 l1
-729 -76 -3 -75 -3 0 -134 0 -135 528 0 c431 0 543 3 616 16 257 45 433 181
497 384 28 89 30 253 5 330 -28 83 -50 121 -103 180 -54 60 -127 110 -193 133
-24 8 -46 21 -48 28 -3 8 -1 11 3 7 11 -10 114 62 157 110 76 85 109 175 109
303 0 187 -70 314 -233 420 -34 21 -98 51 -142 67 l-81 27 -557 3 -558 3 0
-131z m923 -210 c92 -27 153 -128 144 -237 -9 -117 -71 -196 -174 -222 -23 -6
-89 -11 -146 -11 -86 0 -106 3 -111 16 -9 23 -7 459 2 468 10 11 239 0 285
-14z m61 -806 c105 -37 167 -137 167 -270 0 -126 -50 -211 -156 -264 -45 -22
-65 -25 -199 -28 -118 -3 -150 -1 -157 9 -5 8 -9 142 -9 298 l0 284 153 -6
c106 -4 167 -11 201 -23z"/>
<path d="M3545 3811 c-3 -2 -5 -200 -5 -440 l0 -436 102 2 103 2 3 160 2 161
170 0 170 0 0 95 0 95 -170 0 -170 0 0 95 0 95 198 2 197 3 0 85 0 85 -298 1
c-164 0 -300 -2 -302 -5z"/>
<path d="M4390 3378 l0 -443 100 3 100 3 0 435 0 434 -52 1 c-29 0 -74 3 -100
5 l-48 5 0 -443z"/>
<path d="M4862 3378 l3 -439 290 0 290 0 -1 26 c0 14 -1 54 -2 90 l-2 65 -187
2 -188 3 -5 345 -5 345 -98 1 -97 1 2 -439z"/>
<path d="M5654 3811 c-7 -8 -4 -870 4 -873 4 -2 44 -2 90 0 l82 4 0 268 c0
148 4 271 8 274 4 2 53 -85 108 -195 54 -110 104 -204 109 -209 6 -4 33 -6 61
-3 l50 5 102 202 101 201 0 -272 1 -273 100 0 100 0 0 438 0 437 -113 0 -112
0 -116 -230 -116 -230 -113 220 c-62 121 -116 225 -122 230 -9 10 -215 15
-224 6z"/>
<path d="M7447 2756 c-106 -31 -161 -92 -179 -199 -16 -91 6 -161 68 -216 37
-32 72 -49 185 -86 155 -52 186 -75 175 -130 -11 -52 -38 -69 -114 -73 -81 -5
-129 15 -192 78 l-39 39 -66 -55 c-36 -30 -65 -59 -65 -63 0 -20 107 -105 168
-134 62 -30 75 -32 172 -32 93 0 111 3 160 26 126 60 179 166 150 303 -8 42
-22 69 -47 97 -51 56 -84 73 -216 112 -124 36 -157 56 -157 93 0 55 39 84 113
84 47 0 125 -42 149 -80 7 -11 16 -20 21 -20 4 0 37 23 72 51 73 57 73 59 8
121 -60 58 -143 91 -238 95 -47 1 -100 -3 -128 -11z"/>
<path d="M2300 2320 l0 -420 95 0 96 0 -2 148 -1 147 40 3 40 3 79 -138 c43
-76 79 -144 81 -150 3 -10 36 -13 123 -13 l119 0 -79 124 c-117 183 -126 206
-85 206 8 0 36 21 62 48 59 58 77 113 70 210 -8 112 -55 182 -153 228 -48 23
-60 24 -267 24 l-218 0 0 -420z m402 236 c40 -26 54 -81 35 -128 -24 -57 -75
-74 -209 -69 l-38 1 0 111 0 111 93 -4 c67 -3 99 -9 119 -22z"/>
<path d="M3150 2320 l0 -420 285 0 285 0 0 85 0 85 -187 2 -188 3 0 85 0 85
163 3 162 2 0 80 0 80 -165 0 -166 0 3 83 3 82 188 3 187 2 0 80 0 80 -285 0
-285 0 0 -420z"/>
<path d="M3880 2683 c9 -32 70 -206 135 -388 64 -181 122 -345 128 -362 l10
-33 113 0 c98 0 112 2 117 18 3 9 35 98 72 197 37 99 95 261 130 360 35 99 70
199 79 223 l15 43 -106 -3 -106 -3 -18 -55 c-117 -365 -173 -536 -179 -543 -4
-4 -25 50 -47 120 -23 70 -67 208 -98 306 l-56 177 -104 0 -103 0 18 -57z"/>
<path d="M4820 2320 l0 -420 95 0 95 0 0 420 0 420 -95 0 -95 0 0 -420z"/>
<path d="M5240 2320 l0 -420 285 0 285 0 0 85 0 85 -187 2 -188 3 0 85 0 85
163 3 162 2 0 80 0 80 -162 2 -163 3 0 80 0 80 188 3 187 2 0 80 0 80 -285 0
-285 0 0 -420z"/>
<path d="M5950 2731 c0 -5 39 -144 86 -308 47 -164 100 -347 117 -408 l32
-110 106 -3 105 -3 73 263 c69 252 77 276 84 267 5 -5 125 -455 133 -496 l7
-33 106 0 106 0 83 298 c45 163 97 352 116 420 l33 123 -100 -3 -101 -3 -58
-230 c-32 -126 -63 -256 -69 -289 -7 -33 -15 -52 -19 -45 -4 8 -40 139 -80
292 l-74 277 -88 0 c-48 0 -88 -1 -88 -3 0 -2 -11 -41 -25 -88 -14 -46 -44
-151 -66 -234 -22 -82 -47 -174 -55 -203 l-16 -54 -54 214 c-30 117 -64 248
-75 291 l-21 77 -99 0 c-55 0 -99 -4 -99 -9z"/>
</g>
</svg>
